<svg width="1440" height="1024" viewBox="0 0 1440 1024" fill="none" xmlns="http://www.w3.org/2000/svg">
<rect width="1440" height="1024" fill="#1E1E1E"/>
<path d="M780.904 349.611C783.414 345.506 785.406 341.886 786.865 338.757C788.762 334.694 789.9 331.176 789.9 328.4C789.9 323.938 788.167 320.307 784.587 317.92C781.185 315.652 776.399 314.7 770.6 314.7C765.481 314.7 759.435 315.761 752.51 317.797C745.551 319.748 739.024 322.947 732.934 327.375C726.828 331.778 723.3 337.042 723.3 343.2C723.3 349.422 728.191 353.412 735.423 355.776C741.779 357.854 750.702 358.981 762.07 359.241C758.245 363.633 753.098 369.167 746.612 375.853C737.956 384.642 732.19 390.205 729.232 392.652C727.669 393.877 726.406 394.983 725.51 395.957C725.061 396.446 724.648 396.961 724.334 397.493C724.042 397.989 723.7 398.724 723.7 399.6C723.7 400.595 724.133 401.626 725.113 402.28C725.915 402.815 726.801 402.9 727.4 402.9C728.118 402.9 728.742 402.673 729.19 402.462C729.663 402.239 730.128 401.944 730.57 401.622C731.436 400.993 732.416 400.115 733.493 399.042C740.46 393.143 748.209 386.059 756.74 377.796L756.747 377.789L756.754 377.782C764.752 369.909 770.604 363.717 774.248 359.24C780.153 358.915 788.323 358.057 798.725 356.679C805.891 355.74 811.743 354.821 816.237 353.913L801.318 376.616C801.317 376.618 801.315 376.62 801.314 376.622C785.627 400.22 768.774 431.127 750.751 469.307C743.694 483.424 736.77 498.93 729.98 515.823C710.808 519.809 694.138 524.899 679.995 531.111L679.986 531.115L679.977 531.119C665.555 537.589 652.331 545.278 640.311 554.192C628.301 563.098 618.649 572.326 611.407 581.891C597.032 600.876 589.7 619.993 589.7 639.2C589.7 653.576 592.4 664.815 598.205 672.506C604.055 680.257 612.292 684.1 622.6 684.1C643.097 684.1 662.019 671.353 679.432 647.056L679.434 647.053C698.775 619.976 722.146 578.039 749.544 521.337C766.556 516.992 779.934 512.228 789.583 507.002C799.459 501.726 808.025 495.886 815.259 489.47L815.269 489.462L815.278 489.453C822.489 482.923 829.859 474.665 837.394 464.709L837.533 464.525L837.636 464.318C837.998 463.594 838.3 462.732 838.3 461.8C838.3 460.99 837.992 460.019 837.1 459.35C836.343 458.782 835.507 458.7 835 458.7C833.14 458.7 831.954 460.062 831.32 461.013L831.313 461.024C827.356 467.024 821.013 473.915 812.175 481.7C802.814 489.476 794.172 495.423 786.246 499.582C779.336 503.151 768.988 506.735 755.101 510.302L774.862 468.265C774.862 468.264 774.862 468.264 774.863 468.264C775.929 465.998 778.728 460.067 783.261 450.468C787.746 440.968 790.49 435.083 791.464 432.861C792.549 430.691 794.942 425.837 798.64 418.311C802.487 410.616 805.124 405.475 806.568 402.846C808.181 400.157 810.715 395.822 814.165 389.851C817.612 383.883 820.577 379.076 823.063 375.413C829.048 366.767 833.915 360.049 837.67 355.239C839.55 352.832 841.132 350.927 842.424 349.508C843.751 348.049 844.656 347.234 845.187 346.88L847.587 345.28L847.645 345.242L847.7 345.2C848.447 344.64 849.5 343.592 849.5 342C849.5 341.231 849.242 340.486 848.733 339.875C848.261 339.308 847.675 338.977 847.179 338.779C846.229 338.399 845.093 338.3 844 338.3C841.903 338.3 837.843 338.803 832.031 339.727C826.31 340.526 822.007 341.419 819.315 342.462C809.435 346.105 796.654 348.508 780.904 349.611ZM727.019 397.956C727.019 397.955 727.024 397.953 727.034 397.95C727.023 397.954 727.018 397.956 727.019 397.956ZM728.612 400.087C728.611 400.088 728.614 400.081 728.622 400.067C728.616 400.08 728.612 400.087 728.612 400.087ZM615.579 665.174L615.564 665.147L615.548 665.121C612.135 659.393 610.301 651.235 610.3 640.407C610.432 617.233 616.251 598.406 627.574 583.734C638.992 569.074 657.897 554.812 684.533 541.029C693.883 536.356 707.448 531.734 725.315 527.192C721.309 537.333 715.507 551.27 707.902 569.015L707.899 569.024C704.209 577.721 698.383 589.51 690.396 604.419L690.388 604.435L690.38 604.45C682.688 619.304 674.604 633.087 666.129 645.8C659.814 655.007 653.773 661.93 648.023 666.661C642.292 671.266 636.172 673.5 629.6 673.5C623.325 673.5 618.747 670.807 615.579 665.174ZM746.246 328.967L746.266 328.956L746.286 328.944C751.286 325.944 756.246 324.5 761.2 324.5C766.339 324.5 769.891 325.632 772.217 327.535C774.492 329.397 775.7 331.977 775.7 335.6C775.7 338.737 773.794 343.565 769.278 350.3H764.6C763.333 350.3 761.386 350.236 758.732 350.103C756.42 349.975 754.565 349.848 753.156 349.722C751.8 349.455 750.154 349.193 748.23 348.935C746.582 348.577 745.404 348.19 744.617 347.812C743.597 347.172 742.321 346.343 740.787 345.32C740.222 344.943 739.5 343.944 739.5 341.2C739.5 335.493 741.746 331.555 746.246 328.967Z" fill="#00594F" stroke="black" stroke-width="5"/>
</svg>
